# xmcd
#
# Track frame offsets: 
#        150
#        17384
#        27759
#        36579
#        45512
#        70372
#        75400
#        87152
#        112470
#        133424
#        180736
#        190420
#
# Disc length: 2614 seconds
#
# Revision: 0
# Processed by: cddbd v1.5.2PL0 Copyright (c) Steve Scherf et al.
# Submitted via: ExactAudioCopy v0.99pb5
#
DISCID=a40a340c
DTITLE=Jandek - Blue Corpse
DYEAR=1987
DGENRE=
TTITLE0=I Passed by the Building
TTITLE1=C F
TTITLE2=Variant
TTITLE3=Part II
TTITLE4=Your Other Man
TTITLE5=Long Way
TTITLE6=Down at the Ball Park
TTITLE7=Harmonica
TTITLE8=House of the Rising Sun
TTITLE9=Only Lover
TTITLE10=Quinn Boys
TTITLE11=One Minute
EXTD=
EXTT0=
EXTT1=
EXTT2=
EXTT3=
EXTT4=
EXTT5=
EXTT6=
EXTT7=
EXTT8=
EXTT9=
EXTT10=
EXTT11=
PLAYORDER=
